<svg width="74" height="27" viewBox="0 0 74 27" fill="none" xmlns="http://www.w3.org/2000/svg">
<path d="M1.18872 20.0016V20.5016H1.68872H4.97146H5.47146V20.0016V13.5514H8.33115C9.85331 13.5514 11.146 13.2954 12.1805 12.7499L12.1805 12.75L12.1867 12.7466C13.199 12.1944 13.9673 11.4629 14.4643 10.5454L14.4643 10.5454L14.4663 10.5416C14.9509 9.62828 15.1915 8.63257 15.1915 7.56305C15.1915 6.44352 14.9429 5.41888 14.4369 4.50063C13.922 3.56618 13.1428 2.84085 12.1228 2.32158C11.0915 1.79654 9.81914 1.54906 8.33115 1.54906H1.68872H1.18872V2.04906V20.0016ZM10.2285 5.83319L10.2344 5.83929L10.2405 5.84518C10.6331 6.2247 10.8574 6.77404 10.8574 7.56305C10.8574 8.33108 10.6351 8.88619 10.2345 9.28685C9.87695 9.64439 9.21906 9.88415 8.12598 9.88415H5.47146V5.21629H8.12598C9.21527 5.21629 9.87058 5.46289 10.2285 5.83319ZM17.0839 20.2414L17.0838 20.2415L17.0926 20.2458C17.8837 20.6317 18.8632 20.8093 20.0047 20.8093C21.1309 20.8093 22.0987 20.5734 22.8699 20.0602C23.2443 19.8166 23.5784 19.5388 23.871 19.227L23.9983 20.0757L24.0622 20.5016H24.4928H27.2883H27.7883V20.0016V12.1794C27.7883 10.4079 27.2259 8.97516 26.0518 7.955C24.8926 6.94788 23.3355 6.47318 21.4409 6.47318C20.3224 6.47318 19.2964 6.67158 18.371 7.07803C17.4455 7.46741 16.6766 8.03757 16.075 8.78948L16.075 8.78945L16.0703 8.79555C15.4778 9.56008 15.1379 10.4556 15.0443 11.4665L14.9938 12.0126H15.5422H18.748H19.1601L19.2388 11.608C19.3341 11.1177 19.5669 10.781 19.935 10.5525L19.935 10.5526L19.9453 10.5459C20.3498 10.2809 20.8332 10.1404 21.4152 10.1404C22.0516 10.1404 22.5494 10.3154 22.943 10.6411C23.2577 10.9015 23.4674 11.321 23.5008 11.9872H20.7741C18.8745 11.9872 17.3574 12.3631 16.3079 13.1988C15.2655 14.0288 14.7344 15.1303 14.7344 16.4624C14.7344 17.2488 14.9274 17.9781 15.3164 18.6394C15.7141 19.3154 16.3128 19.8465 17.0839 20.2414ZM22.5495 16.4951L22.5494 16.4951L22.5443 16.5013C22.1433 16.9825 21.569 17.2447 20.7484 17.2447C20.2047 17.2447 19.8219 17.124 19.555 16.93C19.3179 16.7575 19.1967 16.5285 19.1967 16.1802C19.1967 15.8775 19.3104 15.6317 19.5776 15.4131L19.5777 15.4133L19.5877 15.4046C19.826 15.1988 20.2992 15.0389 21.1331 15.0389H23.3126C23.1546 15.6074 22.8984 16.0899 22.5495 16.4951ZM30.3607 25.4369L30.0394 26.1438H30.8159H34.3038H34.63L34.7614 25.8451L42.105 9.1531V10.0251V10.5251H42.605H43.849V20.0016V20.5016H44.349H47.6317H48.1317V20.0016V10.5251H50.3759H50.8759V10.0251V7.28093V6.78093H50.3759H48.1317V5.79344C48.1317 5.31869 48.2419 5.11413 48.331 5.03139C48.4305 4.93901 48.6736 4.83159 49.1961 4.83159H50.0938H50.5938V4.33159V1.53613V1.03613H50.0938H48.6832C47.2695 1.03613 46.0851 1.38133 45.1846 2.12522L45.1846 2.12519L45.1805 2.12868C44.25 2.91441 43.849 4.18577 43.849 5.79344V6.78093H43.1486H42.605H42.3824H42.105H38.8945H38.5608L38.4327 7.0891L35.1855 14.9048L32.0754 7.09593L31.95 6.78093H31.6109H28.046H27.2959L27.5845 7.47331L32.5343 19.3476L32.6625 19.6552H32.9887L30.3607 25.4369ZM52.4662 20.0016V20.5016H52.9662H56.2489H56.7489V20.0016V1.53613V1.03613H56.2489H52.9662H52.4662V1.53613V20.0016ZM59.9783 25.4369L59.657 26.1438H60.4335H63.9214H64.2477L64.3791 25.8451L72.4577 7.48228L72.7662 6.78093H72H68.5121H68.1784L68.0504 7.0891L64.8032 14.9048L61.693 7.09593L61.5676 6.78093H61.2285H57.6637H56.9135L57.2022 7.47331L62.1519 19.3476L62.2801 19.6552H62.6063L59.9783 25.4369Z" fill="#5BB5A2" stroke="#5BB5A2"/>
</svg>
