<svg width="98" height="26" viewBox="0 0 98 26" fill="none" xmlns="http://www.w3.org/2000/svg">
<path d="M0.000144478 11.5265C0.000144217 5.54313 4.85187 0.691407 10.8353 0.691406L10.8353 11.5265L0.000144478 11.5265Z" fill="#5BB5A2"/>
<path d="M21.6704 0.691406C21.6704 6.6748 16.8187 11.5265 10.8353 11.5265L10.8353 0.691407L21.6704 0.691406Z" fill="#5BB5A2"/>
<path d="M8.29697e-05 11.5273C8.32312e-05 17.5107 4.85181 22.3625 10.8352 22.3625L10.8352 11.5273L8.29697e-05 11.5273Z" fill="#5BB5A2"/>
<path d="M10.8353 22.3625C16.8187 22.3625 21.6704 17.5107 21.6704 11.5273L10.8353 11.5273L10.8353 22.3625Z" fill="#5BB5A2"/>
<path d="M27.6887 20.0016V2.04906H34.3311C35.7673 2.04906 36.9556 2.28843 37.896 2.76716C38.8364 3.24589 39.5374 3.90415 39.999 4.74194C40.4606 5.57972 40.6915 6.52009 40.6915 7.56305C40.6915 8.55471 40.4692 9.46943 40.0247 10.3072C39.5801 11.1279 38.8877 11.7947 37.9473 12.3076C37.0069 12.8035 35.8015 13.0514 34.3311 13.0514H30.9715V20.0016H27.6887ZM30.9715 10.3842H34.126C35.2715 10.3842 36.0922 10.1362 36.588 9.64041C37.101 9.12748 37.3574 8.43502 37.3574 7.56305C37.3574 6.67397 37.101 5.98151 36.588 5.48568C36.0922 4.97275 35.2715 4.71629 34.126 4.71629H30.9715V10.3842Z" fill="#5BB5A2"/>
<path d="M46.0047 20.3093C44.9104 20.3093 44.0128 20.1383 43.3118 19.7964C42.6108 19.4373 42.0893 18.9672 41.7474 18.3858C41.4054 17.8045 41.2344 17.1634 41.2344 16.4624C41.2344 15.2826 41.6961 14.3252 42.6194 13.59C43.5426 12.8548 44.9275 12.4872 46.7741 12.4872H50.0055V12.1794C50.0055 11.3074 49.7576 10.6663 49.2618 10.2559C48.7659 9.84558 48.1504 9.64041 47.4152 9.64041C46.7484 9.64041 46.1671 9.80283 45.6713 10.1277C45.1754 10.4354 44.8677 10.8971 44.748 11.5126H41.5422C41.6277 10.5893 41.9354 9.78574 42.4655 9.10183C43.0126 8.41793 43.7136 7.89645 44.5685 7.5374C45.4234 7.16125 46.3808 6.97318 47.4409 6.97318C49.2532 6.97318 50.6809 7.42626 51.7238 8.33244C52.7668 9.23861 53.2883 10.5209 53.2883 12.1794V20.0016H50.4928L50.1851 17.9499C49.8089 18.6338 49.2789 19.198 48.595 19.6425C47.9282 20.0871 47.0647 20.3093 46.0047 20.3093ZM46.7484 17.7447C47.6888 17.7447 48.4154 17.4369 48.9284 16.8214C49.4584 16.2059 49.7918 15.445 49.9286 14.5389H47.1331C46.2611 14.5389 45.6371 14.7013 45.2609 15.0262C44.8848 15.3339 44.6967 15.7186 44.6967 16.1802C44.6967 16.6761 44.8848 17.0608 45.2609 17.3343C45.6371 17.6079 46.1329 17.7447 46.7484 17.7447Z" fill="#5BB5A2"/>
<path d="M56.8159 25.6438L59.7652 19.1552H58.9958L54.046 7.28093H57.6109L61.1758 16.2315L64.8945 7.28093H68.3824L60.3038 25.6438H56.8159Z" fill="#5BB5A2"/>
<path d="M70.349 20.0016V10.0251H68.605V7.28093H70.349V5.79344C70.349 4.25465 70.7337 3.16041 71.503 2.5107C72.2895 1.86099 73.3496 1.53613 74.6832 1.53613H76.0938V4.33159H75.1961C74.6319 4.33159 74.2301 4.44273 73.9907 4.665C73.7514 4.88727 73.6317 5.26341 73.6317 5.79344V7.28093H76.3759V10.0251H73.6317V20.0016H70.349ZM78.9662 20.0016V1.53613H82.2489V20.0016H78.9662Z" fill="#5BB5A2"/>
<path d="M86.4335 25.6438L89.3828 19.1552H88.6134L83.6637 7.28093H87.2285L90.7934 16.2315L94.5121 7.28093H98L89.9214 25.6438H86.4335Z" fill="#5BB5A2"/>
</svg>
