<svg width="71" height="25" viewBox="0 0 71 25" fill="none" xmlns="http://www.w3.org/2000/svg">
<path d="M0.688721 19.0016V1.04906H7.33115C8.76735 1.04906 9.95563 1.28843 10.896 1.76716C11.8364 2.24589 12.5374 2.90415 12.999 3.74194C13.4606 4.57972 13.6915 5.52009 13.6915 6.56305C13.6915 7.55471 13.4692 8.46943 13.0247 9.30721C12.5801 10.1279 11.8877 10.7947 10.9473 11.3076C10.0069 11.8035 8.80154 12.0514 7.33115 12.0514H3.97146V19.0016H0.688721ZM3.97146 9.38415H7.12598C8.27152 9.38415 9.0922 9.13624 9.58803 8.64041C10.101 8.12748 10.3574 7.43502 10.3574 6.56305C10.3574 5.67397 10.101 4.98151 9.58803 4.48568C9.0922 3.97275 8.27152 3.71629 7.12598 3.71629H3.97146V9.38415Z" fill="#5BB5A2"/>
<path d="M19.0047 19.3093C17.9104 19.3093 17.0128 19.1383 16.3118 18.7964C15.6108 18.4373 15.0893 17.9672 14.7474 17.3858C14.4054 16.8045 14.2344 16.1634 14.2344 15.4624C14.2344 14.2826 14.6961 13.3252 15.6194 12.59C16.5426 11.8548 17.9275 11.4872 19.7741 11.4872H23.0055V11.1794C23.0055 10.3074 22.7576 9.66626 22.2618 9.25592C21.7659 8.84558 21.1504 8.64041 20.4152 8.64041C19.7484 8.64041 19.1671 8.80283 18.6713 9.12769C18.1754 9.43545 17.8677 9.89708 17.748 10.5126H14.5422C14.6277 9.58932 14.9354 8.78574 15.4655 8.10183C16.0126 7.41793 16.7136 6.89645 17.5685 6.5374C18.4234 6.16125 19.3808 5.97318 20.4409 5.97318C22.2532 5.97318 23.6809 6.42626 24.7238 7.33244C25.7668 8.23861 26.2883 9.52093 26.2883 11.1794V19.0016H23.4928L23.1851 16.9499C22.8089 17.6338 22.2789 18.198 21.595 18.6425C20.9282 19.0871 20.0647 19.3093 19.0047 19.3093ZM19.7484 16.7447C20.6888 16.7447 21.4154 16.4369 21.9284 15.8214C22.4584 15.2059 22.7918 14.445 22.9286 13.5389H20.1331C19.2611 13.5389 18.6371 13.7013 18.2609 14.0262C17.8848 14.3339 17.6967 14.7186 17.6967 15.1802C17.6967 15.6761 17.8848 16.0608 18.2609 16.3343C18.6371 16.6079 19.1329 16.7447 19.7484 16.7447Z" fill="#5BB5A2"/>
<path d="M29.8159 24.6438L32.7652 18.1552H31.9958L27.046 6.28093H30.6109L34.1758 15.2315L37.8945 6.28093H41.3824L33.3038 24.6438H29.8159Z" fill="#5BB5A2"/>
<path d="M43.349 19.0016V9.0251H41.605V6.28093H43.349V4.79344C43.349 3.25465 43.7337 2.16041 44.503 1.5107C45.2895 0.860988 46.3496 0.536133 47.6832 0.536133H49.0938V3.33159H48.1961C47.6319 3.33159 47.2301 3.44273 46.9907 3.665C46.7514 3.88727 46.6317 4.26341 46.6317 4.79344V6.28093H49.3759V9.0251H46.6317V19.0016H43.349ZM51.9662 19.0016V0.536133H55.2489V19.0016H51.9662Z" fill="#5BB5A2"/>
<path d="M59.4335 24.6438L62.3828 18.1552H61.6134L56.6637 6.28093H60.2285L63.7934 15.2315L67.5121 6.28093H71L62.9214 24.6438H59.4335Z" fill="#5BB5A2"/>
</svg>
