<svg width="131" height="26" viewBox="0 0 131 26" fill="none" xmlns="http://www.w3.org/2000/svg">
<g clip-path="url(#clip0_1_834)">
<path fill-rule="evenodd" clip-rule="evenodd" d="M51.4333 20.0556C46.6176 23.6097 39.6357 25.4996 33.6233 25.4996C25.1974 25.4996 17.6095 22.3849 11.8672 17.2C11.4169 16.7925 11.8185 16.2366 12.3604 16.5518C18.5552 20.1568 26.217 22.328 34.129 22.328C39.4667 22.328 45.3344 21.2199 50.7334 18.9298C51.5477 18.585 52.2306 19.4665 51.4333 20.0556Z" fill="#F79C34"/>
<path fill-rule="evenodd" clip-rule="evenodd" d="M53.4377 17.7671C52.8213 16.9786 49.3662 17.3935 47.8136 17.5796C47.3433 17.6364 47.2703 17.2252 47.694 16.9277C50.4507 14.9912 54.9682 15.5501 55.4931 16.199C56.0217 16.8524 55.3536 21.3817 52.7711 23.5426C52.3732 23.8748 51.9952 23.6976 52.1716 23.2591C52.7534 21.8069 54.0542 18.5571 53.4377 17.7671Z" fill="#F79C34"/>
<path fill-rule="evenodd" clip-rule="evenodd" d="M47.9229 3.24963V1.36852C47.9244 1.08207 48.1399 0.891602 48.3998 0.89234L56.8323 0.891602C57.1018 0.891602 57.3188 1.08724 57.3188 1.36631V2.97943C57.3159 3.25037 57.0877 3.60326 56.6839 4.16361L52.3156 10.4005C53.9368 10.3629 55.6518 10.6057 57.1254 11.4333C57.4576 11.6201 57.5469 11.897 57.5728 12.1679V14.1753C57.5728 14.4521 57.2701 14.7718 56.9512 14.6057C54.3561 13.2458 50.9121 13.0974 48.0417 14.6219C47.7486 14.7784 47.4423 14.4625 47.4423 14.1856V12.2772C47.4423 11.9723 47.4482 11.4496 47.756 10.9845L52.8161 3.72434L48.4101 3.7236C48.1407 3.7236 47.9244 3.53165 47.9229 3.24963Z" fill="#333E47"/>
<path fill-rule="evenodd" clip-rule="evenodd" d="M17.1636 15.0003H14.5981C14.3537 14.9848 14.1588 14.8017 14.1389 14.567L14.1411 1.39995C14.1411 1.13713 14.3626 0.926719 14.6365 0.926719L17.0255 0.925981C17.275 0.938531 17.4758 1.12753 17.4913 1.3682V3.08689H17.5401C18.1624 1.42431 19.3355 0.648392 20.9162 0.648392C22.5204 0.648392 23.5267 1.42431 24.245 3.08689C24.8674 1.42431 26.2804 0.648392 27.7887 0.648392C28.8666 0.648392 30.0397 1.09209 30.758 2.08949C31.5724 3.19837 31.4055 4.80485 31.4055 6.21789L31.4026 14.5271C31.4026 14.7892 31.1818 15.0003 30.9079 15.0003H28.3461C28.0877 14.9841 27.8854 14.7803 27.8854 14.5278L27.8847 7.54751C27.8847 6.99381 27.9327 5.60882 27.8124 5.08243C27.6211 4.19504 27.0468 3.9455 26.3048 3.9455C25.6817 3.9455 25.035 4.36115 24.7714 5.02559C24.5079 5.69151 24.5322 6.79891 24.5322 7.54751V14.5271C24.5322 14.7892 24.3107 15.0003 24.0376 15.0003H21.475C21.2174 14.9841 21.0144 14.7803 21.0144 14.5278L21.0114 7.54751C21.0114 6.0791 21.2514 3.91892 19.4315 3.91892C17.5873 3.91892 17.6597 6.02373 17.6597 7.54751L17.6582 14.5271C17.6582 14.7892 17.4367 15.0003 17.1636 15.0003Z" fill="#333E47"/>
<path fill-rule="evenodd" clip-rule="evenodd" d="M64.601 3.33643C62.7096 3.33643 62.59 5.91225 62.59 7.51946C62.59 9.12667 62.5663 12.5626 64.5781 12.5626C66.5655 12.5626 66.6615 9.79185 66.6615 8.10195C66.6615 6.99381 66.6128 5.66345 66.2776 4.61068C65.9904 3.69597 65.4153 3.33643 64.601 3.33643ZM64.5781 0.648392C68.3854 0.648392 70.4444 3.91892 70.4444 8.07464C70.4444 12.0908 68.1698 15.2779 64.5781 15.2779C60.8417 15.2779 58.8063 12.0081 58.8063 7.93584C58.8063 3.83476 60.8654 0.648392 64.5781 0.648392Z" fill="#333E47"/>
<path fill-rule="evenodd" clip-rule="evenodd" d="M75.3827 15.0003H72.8261C72.5699 14.9841 72.3661 14.7803 72.3661 14.5278L72.3617 1.35639C72.3838 1.11498 72.5965 0.926719 72.8549 0.926719L75.2343 0.925981C75.4587 0.937793 75.6433 1.08988 75.6906 1.29438V3.30837H75.7385C76.4576 1.507 77.4624 0.648392 79.2342 0.648392C80.3837 0.648392 81.5096 1.06404 82.2279 2.20023C82.8983 3.253 82.8983 5.02559 82.8983 6.30058V14.5862C82.8702 14.8195 82.6605 15.0003 82.4066 15.0003H79.8352C79.5975 14.9856 79.4063 14.8106 79.3782 14.5862V7.43751C79.3782 5.99641 79.5465 3.89013 77.7739 3.89013C77.1516 3.89013 76.5765 4.30578 76.2893 4.9429C75.9297 5.74688 75.8818 6.55011 75.8818 7.43751V14.5271C75.8773 14.7892 75.6559 15.0003 75.3827 15.0003Z" fill="#333E47"/>
<path fill-rule="evenodd" clip-rule="evenodd" d="M43.7863 14.9682C43.6172 15.1203 43.3729 15.1306 43.1809 15.028C42.3289 14.32 42.1761 13.9929 41.7103 13.3181C40.3024 14.7526 39.305 15.183 37.4807 15.183C35.3213 15.183 33.641 13.8497 33.641 11.1845C33.641 9.10188 34.7698 7.68588 36.377 6.99191C37.7687 6.38063 39.7125 6.26988 41.2009 6.10304V5.77008C41.2009 5.15805 41.2489 4.4375 40.8886 3.90964C40.5763 3.43715 39.9768 3.24298 39.449 3.24298C38.47 3.24298 37.6011 3.74427 37.387 4.78301C37.3419 5.01409 37.1736 5.24369 36.9418 5.2555L34.4546 4.98603C34.2449 4.93805 34.0116 4.76972 34.0714 4.44931C34.6362 1.47483 37.2925 0.547562 39.7066 0.522461H39.8971C41.1329 0.537965 42.7114 0.87683 43.6726 1.79893C44.921 2.96539 44.7999 4.52019 44.7999 6.21451V10.2108C44.7999 11.4134 45.2997 11.9405 45.7685 12.588C45.9332 12.822 45.9693 13.0989 45.7604 13.2702C45.2362 13.7094 44.3053 14.5178 43.7937 14.9741L43.7863 14.9682ZM41.2009 8.71355C41.2009 9.71317 41.2245 10.5459 40.721 11.4348C40.3127 12.1561 39.6645 12.6005 38.9447 12.6005C37.9613 12.6005 37.3855 11.8512 37.3855 10.7401C37.3855 8.55483 39.3449 8.15764 41.2009 8.15764V8.71355Z" fill="#333E47"/>
<path fill-rule="evenodd" clip-rule="evenodd" d="M10.1574 14.9682C9.98758 15.1203 9.74247 15.1306 9.55126 15.028C8.69856 14.32 8.54574 13.9929 8.08063 13.3181C6.67201 14.7526 5.67535 15.183 3.85109 15.183C1.69165 15.183 0.0113525 13.8497 0.0113525 11.1845C0.0113525 9.10188 1.13869 7.68588 2.74738 6.99191C4.13901 6.38063 6.08288 6.26988 7.57049 6.10304V5.77008C7.57049 5.15805 7.61921 4.4375 7.25894 3.90964C6.94665 3.43715 6.34644 3.24298 5.81931 3.24298C4.84037 3.24298 3.96995 3.74427 3.75733 4.78301C3.71303 5.01409 3.54397 5.24369 3.31141 5.2555L0.824925 4.98603C0.614518 4.93805 0.381225 4.76972 0.441763 4.44931C1.00506 1.47483 3.66209 0.547562 6.07697 0.522461H6.26744C7.50331 0.537965 9.08172 0.87683 10.043 1.79893C11.2906 2.96539 11.1703 4.52019 11.1703 6.21451V10.2108C11.1703 11.4134 11.6701 11.9405 12.1389 12.588C12.3021 12.822 12.3397 13.0989 12.1308 13.2702C11.6066 13.7094 10.6749 14.5178 10.1633 14.9741L10.1574 14.9682ZM7.57049 8.71355C7.57049 9.71317 7.59485 10.5459 7.09061 11.4348C6.68309 12.1561 6.03489 12.6005 5.31434 12.6005C4.33096 12.6005 3.75511 11.8512 3.75511 10.7401C3.75511 8.55483 5.71522 8.15764 7.57049 8.15764V8.71355Z" fill="#333E47"/>
<path fill-rule="evenodd" clip-rule="evenodd" d="M117.967 19.7242C117.967 19.3905 117.967 19.0907 117.967 18.757C117.967 18.4816 118.102 18.2919 118.389 18.3089C118.925 18.3849 119.683 18.461 120.222 18.3502C120.924 18.2041 121.429 17.7057 121.727 17.0228C122.147 16.0616 122.425 15.2864 122.601 14.7778L117.264 1.55683C117.174 1.3324 117.147 0.916016 117.596 0.916016H119.461C119.817 0.916016 119.962 1.14193 120.041 1.36341L123.911 12.1023L127.604 1.36341C127.68 1.1434 127.831 0.916016 128.184 0.916016H129.943C130.388 0.916016 130.363 1.33166 130.275 1.55683L124.98 15.1904C124.295 17.0051 123.383 19.8954 121.327 20.3975C120.297 20.6669 118.997 20.5695 118.233 20.2498C118.041 20.1531 117.967 19.8947 117.967 19.7242Z" fill="#333E47"/>
<path fill-rule="evenodd" clip-rule="evenodd" d="M115.478 14.1949C115.478 14.4407 115.277 14.6423 115.029 14.6423H113.714C113.429 14.6423 113.235 14.437 113.199 14.1949L113.067 13.2994C112.462 13.811 111.72 14.2606 110.916 14.5736C109.368 15.1746 107.585 15.2742 106.073 14.3455C104.979 13.6744 104.399 12.3625 104.399 11.0093C104.399 9.96239 104.722 8.92439 105.437 8.17061C106.391 7.14073 107.775 6.63502 109.446 6.63502C110.455 6.63502 111.899 6.75388 112.95 7.09717V5.29506C112.95 3.46267 112.178 2.66977 110.144 2.66977C108.589 2.66977 107.4 2.90454 105.745 3.41912C105.48 3.42797 105.325 3.22643 105.325 2.98058V1.95291C105.325 1.70633 105.535 1.46787 105.763 1.39552C106.945 0.880209 108.62 0.559062 110.4 0.5C112.72 0.5 115.478 1.02343 115.478 4.59222V14.1949ZM112.95 11.5637V8.84465C112.067 8.60324 110.606 8.50284 110.04 8.50284C109.147 8.50284 108.168 8.71398 107.658 9.26399C107.276 9.66709 107.103 10.2459 107.103 10.8055C107.103 11.529 107.353 12.2547 107.938 12.6135C108.617 13.0749 109.671 13.0188 110.661 12.7375C111.613 12.4673 112.506 11.9897 112.95 11.5637Z" fill="#333E47"/>
<path fill-rule="evenodd" clip-rule="evenodd" d="M96.08 2.71007C98.9991 2.71007 99.7942 5.00535 99.7942 7.63358C99.8105 9.40543 99.4849 10.9853 98.5672 11.8897C97.8806 12.5667 97.1136 12.7513 95.9589 12.7513C94.9312 12.7513 93.5795 12.2153 92.5695 11.4689V3.95405C93.6208 3.14639 94.9622 2.71007 96.08 2.71007ZM92.1221 20.1952H90.3599C90.1133 20.1952 89.9117 19.9937 89.9117 19.7478C89.9117 13.6276 89.9117 7.5066 89.9117 1.38635C89.9117 1.14051 90.1133 0.938962 90.3599 0.938962H91.7087C91.9922 0.938962 92.1863 1.1442 92.2225 1.38635L92.3643 2.34832C93.6274 1.22689 95.2539 0.507812 96.8035 0.507812C101.144 0.507812 102.571 4.08399 102.571 7.80265C102.571 11.7812 100.388 14.9779 96.6957 14.9779C95.1409 14.9779 93.6872 14.4042 92.5695 13.4076V19.7478C92.5695 19.9937 92.368 20.1952 92.1221 20.1952Z" fill="#333E47"/>
</g>
<defs>
<clipPath id="clip0_1_834">
<rect width="130.316" height="25" fill="white" transform="translate(0.0113525 0.5)"/>
</clipPath>
</defs>
</svg>
