<svg width="62" height="26" viewBox="0 0 62 26" fill="none" xmlns="http://www.w3.org/2000/svg">
<g clip-path="url(#clip0_1_831)">
<path d="M11.2492 3.72312C10.5356 4.56755 9.39385 5.23359 8.25208 5.13844C8.10936 3.99667 8.66835 2.78354 9.32249 2.03425C10.0361 1.16603 11.2849 0.547574 12.2958 0.5C12.4148 1.68934 11.9509 2.8549 11.2492 3.72312ZM12.284 5.36442C10.6308 5.26927 9.21545 6.304 8.43048 6.304C7.63362 6.304 6.43238 5.41199 5.12411 5.43578C3.42335 5.45956 1.84152 6.42293 0.973299 7.95718C-0.810717 11.0257 0.509455 15.569 2.234 18.0666C3.07844 19.3035 4.08938 20.6594 5.42144 20.6118C6.68215 20.5642 7.18167 19.7912 8.70403 19.7912C10.2383 19.7912 10.6783 20.6118 12.0104 20.588C13.39 20.5642 14.2583 19.3511 15.1027 18.1142C16.0661 16.7108 16.4586 15.343 16.4823 15.2716C16.4586 15.2479 13.8182 14.2369 13.7944 11.1922C13.7706 8.647 15.8758 7.43387 15.9709 7.36251C14.7816 5.60228 12.9262 5.41199 12.284 5.36442ZM21.8344 1.91532V20.4572H24.7126V14.118H28.6969C32.3363 14.118 34.8934 11.6204 34.8934 8.00476C34.8934 4.38915 32.3839 1.91532 28.792 1.91532H21.8344ZM24.7126 4.34158H28.0309C30.5285 4.34158 31.9557 5.67364 31.9557 8.01665C31.9557 10.3597 30.5285 11.7036 28.019 11.7036H24.7126V4.34158ZM40.1503 20.5999C41.9581 20.5999 43.6351 19.6841 44.3962 18.2331H44.4557V20.4572H47.1198V11.2279C47.1198 8.55186 44.979 6.82731 41.6845 6.82731C38.6279 6.82731 36.3682 8.57564 36.2849 10.9781H38.8777C39.0918 9.83635 40.1503 9.08706 41.6013 9.08706C43.3615 9.08706 44.3487 9.90771 44.3487 11.4182V12.441L40.7568 12.6551C37.4148 12.8573 35.607 14.225 35.607 16.6037C35.607 19.0062 37.4743 20.5999 40.1503 20.5999ZM40.9233 18.3996C39.3891 18.3996 38.4138 17.6622 38.4138 16.5324C38.4138 15.3668 39.3534 14.6889 41.1493 14.5818L44.3487 14.3796V15.4263C44.3487 17.1627 42.8739 18.3996 40.9233 18.3996ZM50.676 25.5C53.4828 25.5 54.803 24.4296 55.9566 21.1827L61.0114 7.00571H58.0856L54.6959 17.9596H54.6365L51.2468 7.00571H48.2378L53.1141 20.5048L52.8525 21.3254C52.4124 22.7169 51.6988 23.2521 50.4262 23.2521C50.2002 23.2521 49.7602 23.2284 49.5818 23.2046V25.4286C49.7483 25.4762 50.4619 25.5 50.676 25.5Z" fill="black"/>
</g>
<defs>
<clipPath id="clip0_1_831">
<rect width="60.8944" height="25" fill="white" transform="translate(0.116974 0.5)"/>
</clipPath>
</defs>
</svg>
