<svg width="121" height="26" viewBox="0 0 121 26" fill="none" xmlns="http://www.w3.org/2000/svg">
<g clip-path="url(#clip0_1_788)">
<path d="M25.2414 16.0248C23.5719 22.7212 16.7896 26.7965 10.0924 25.1266C3.39797 23.4571 -0.677364 16.6744 0.992923 9.9784C2.66165 3.28124 9.44397 -0.794474 16.1392 0.875032C22.836 2.54454 26.9109 9.32802 25.2414 16.0248Z" fill="#F7931A"/>
<path d="M18.6282 11.2202C18.877 9.55694 17.6106 8.66281 15.879 8.06633L16.4407 5.81324L15.0693 5.47145L14.5224 7.66516C14.1619 7.57532 13.7915 7.49056 13.4236 7.40658L13.9744 5.1984L12.6037 4.85661L12.0416 7.10892C11.7431 7.04095 11.4502 6.97377 11.1658 6.90307L11.1674 6.89604L9.276 6.42377L8.91116 7.88859C8.91116 7.88859 9.92872 8.12179 9.90724 8.13625C10.4627 8.27492 10.5631 8.64249 10.5463 8.93389L9.90645 11.5007C9.94473 11.5104 9.99435 11.5245 10.049 11.5464C10.0033 11.535 9.9545 11.5225 9.90411 11.5104L9.00725 15.1061C8.93928 15.2748 8.76702 15.5279 8.37875 15.4318C8.39242 15.4518 7.38189 15.183 7.38189 15.183L6.70103 16.7529L8.48577 17.1978C8.8178 17.281 9.14318 17.3681 9.46349 17.4502L8.89593 19.729L10.2658 20.0708L10.8279 17.8162C11.2021 17.9177 11.5654 18.0115 11.9209 18.0998L11.3607 20.3439L12.7322 20.6857L13.2998 18.4111C15.6384 18.8537 17.397 18.6751 18.1372 16.5599C18.7337 14.8568 18.1075 13.8744 16.877 13.2338C17.7731 13.0272 18.4481 12.4378 18.6282 11.2202ZM15.4946 15.6143C15.0708 17.3174 12.2033 16.3967 11.2736 16.1658L12.0267 13.1467C12.9564 13.3787 15.9376 13.8381 15.4946 15.6143ZM15.9189 11.1956C15.5321 12.7448 13.1455 11.9577 12.3713 11.7647L13.0541 9.02648C13.8283 9.21944 16.3216 9.57959 15.9189 11.1956Z" fill="white"/>
<path d="M37.249 8.06398C38.2627 8.06398 39.1384 8.24562 39.8744 8.60225C40.6138 8.9624 41.2239 9.44756 41.7134 10.0577C42.1962 10.671 42.5556 11.3878 42.7876 12.2092C43.018 13.033 43.1337 13.9186 43.1337 14.8666C43.1337 16.3228 42.8669 17.6986 42.3282 18.9955C41.7896 20.2943 41.0587 21.4208 40.129 22.3817C39.2001 23.3415 38.1033 24.0981 36.8385 24.6571C35.5756 25.2164 34.2026 25.4961 32.7284 25.4961C32.5378 25.4961 32.2026 25.4907 31.7292 25.4809C31.2557 25.4711 30.7116 25.4223 30.1022 25.3399C29.489 25.2543 28.8405 25.1278 28.1558 24.9583C27.4714 24.7918 26.8214 24.5586 26.2093 24.2626L31.6827 1.26449L36.5849 0.50473L34.6252 8.66593C35.0447 8.47687 35.4674 8.33038 35.8893 8.22374C36.3115 8.11867 36.7646 8.06398 37.249 8.06398ZM33.137 21.6071C33.8752 21.6071 34.5709 21.4255 35.2244 21.0689C35.8799 20.7118 36.4455 20.2298 36.9193 19.6294C37.3931 19.0263 37.7681 18.347 38.0416 17.5881C38.315 16.8291 38.4533 16.0373 38.4533 15.2135C38.4533 14.2014 38.2841 13.412 37.947 12.8413C37.6099 12.2729 36.9861 11.987 36.0803 11.987C35.7834 11.987 35.401 12.0436 34.9268 12.1448C34.451 12.2522 34.0252 12.4752 33.6436 12.8108L31.5569 21.4778C31.6827 21.5001 31.794 21.5212 31.8889 21.5411C31.9819 21.5626 32.0846 21.5778 32.187 21.5884C32.2952 21.6005 32.419 21.6067 32.5686 21.6067C32.7182 21.6067 32.9053 21.6071 33.137 21.6071Z" fill="#4D4D4D"/>
<path d="M48.2176 25.0559H43.5352L47.4895 8.41672H52.2039L48.2176 25.0559ZM50.4961 6.38941C49.8426 6.38941 49.25 6.19488 48.7242 5.80504C48.1941 5.41754 47.9317 4.82107 47.9317 4.01718C47.9317 3.575 48.0215 3.16015 48.1996 2.76875C48.3805 2.37813 48.6168 2.04182 48.9129 1.75588C49.2086 1.47229 49.5512 1.24573 49.9402 1.07503C50.3316 0.907065 50.748 0.823086 51.1918 0.823086C51.8449 0.823086 52.4343 1.01761 52.962 1.40745C53.4878 1.79924 53.7523 2.39572 53.7523 3.19531C53.7523 3.63906 53.6628 4.05545 53.4831 4.44607C53.3046 4.83669 53.0683 5.17301 52.7722 5.45894C52.4788 5.74292 52.1331 5.9687 51.7449 6.13784C51.3531 6.30854 50.9382 6.38941 50.4961 6.38941Z" fill="#4D4D4D"/>
<path d="M56.3073 4.27148L61.2115 3.51172L60.0072 8.41633H65.2595L64.3111 12.2749H59.0905L57.6999 18.0951C57.5717 18.5802 57.4991 19.0333 57.4788 19.4544C57.4557 19.8775 57.5092 20.2408 57.6358 20.5466C57.7616 20.8533 57.9878 21.0896 58.3159 21.2568C58.6424 21.4267 59.11 21.5122 59.7233 21.5122C60.2283 21.5122 60.7205 21.4642 61.1963 21.3689C61.6693 21.2751 62.1486 21.1447 62.6338 20.974L62.983 24.5817C62.3502 24.8137 61.665 25.0133 60.9268 25.1813C60.1873 25.3516 59.3119 25.4336 58.3002 25.4336C56.8456 25.4336 55.7179 25.2176 54.9144 24.7876C54.112 24.3544 53.5449 23.7626 53.2054 23.0134C52.8706 22.2669 52.721 21.4064 52.7628 20.4368C52.8062 19.465 52.9527 18.4435 53.2054 17.3678L56.3073 4.27148Z" fill="#4D4D4D"/>
<path d="M65.0533 18.4115C65.0533 16.9783 65.2853 15.6268 65.7489 14.3615C66.2118 13.0952 66.8786 11.9878 67.7438 11.0374C68.6059 10.0917 69.6563 9.34247 70.8926 8.79248C72.1231 8.24562 73.5008 7.96984 75.0191 7.96984C75.9695 7.96984 76.8183 8.05969 77.5652 8.23977C78.3152 8.4214 78.9937 8.65617 79.6073 8.9507L77.9925 12.6225C77.5706 12.4514 77.1328 12.3006 76.68 12.1639C76.2269 12.0245 75.6738 11.9573 75.0195 11.9573C73.4566 11.9573 72.2211 12.4959 71.3016 13.5698C70.3856 14.6443 69.9243 16.0908 69.9243 17.9052C69.9243 18.9806 70.1563 19.8501 70.6219 20.5154C71.0852 21.1806 71.941 21.5114 73.1836 21.5114C73.7969 21.5114 74.3887 21.4474 74.9554 21.3224C75.5265 21.1958 76.0308 21.0364 76.4749 20.8482L76.8246 24.6122C76.2324 24.8419 75.5793 25.0493 74.8629 25.2309C74.1449 25.4063 73.2902 25.4973 72.2992 25.4973C70.991 25.4973 69.8836 25.3059 68.9778 24.929C68.0716 24.5462 67.3227 24.038 66.7329 23.3942C66.14 22.7489 65.7142 21.9954 65.4509 21.1306C65.1876 20.2665 65.0533 19.3587 65.0533 18.4115Z" fill="#4D4D4D"/>
<path d="M85.8537 25.4973C84.7362 25.4973 83.7655 25.327 82.942 24.9899C82.121 24.6528 81.4409 24.1798 80.903 23.5665C80.3643 22.9563 79.9612 22.2333 79.6851 21.4001C79.4089 20.5673 79.2761 19.6451 79.2761 18.6345C79.2761 17.367 79.4796 16.0998 79.8909 14.8361C80.3003 13.5698 80.9077 12.4319 81.7116 11.4206C82.5092 10.4077 83.4932 9.57958 84.6518 8.93389C85.8092 8.29249 87.1404 7.96984 88.6357 7.96984C89.733 7.96984 90.6986 8.14054 91.5333 8.47764C92.3642 8.81397 93.0485 9.29092 93.5895 9.90106C94.1247 10.5143 94.5313 11.2343 94.8047 12.0686C95.0801 12.8999 95.2161 13.8244 95.2161 14.8358C95.2161 16.0994 95.0153 17.3666 94.6169 18.6341C94.2181 19.8954 93.6263 21.0361 92.845 22.0497C92.0653 23.061 91.0904 23.8887 89.9193 24.5317C88.7498 25.1747 87.3935 25.4973 85.8537 25.4973ZM88.1939 11.9577C87.4998 11.9577 86.8861 12.1592 86.3607 12.5573C85.8334 12.96 85.3904 13.4662 85.0334 14.0768C84.6725 14.6901 84.4049 15.3588 84.2241 16.0857C84.0448 16.8142 83.9569 17.5029 83.9569 18.1572C83.9569 19.213 84.1272 20.0353 84.4619 20.6271C84.8014 21.2157 85.4112 21.5118 86.2975 21.5118C86.9939 21.5118 87.6045 21.3118 88.133 20.9095C88.6572 20.5099 89.1006 20.0032 89.4603 19.3915C89.8189 18.7814 90.0888 18.1107 90.2697 17.3826C90.4466 16.6564 90.5369 15.9639 90.5369 15.3107C90.5369 14.2576 90.3673 13.4334 90.0294 12.8424C89.6919 12.2538 89.0795 11.9577 88.1939 11.9577Z" fill="#4D4D4D"/>
<path d="M100.318 25.0559H95.6321L99.5863 8.41672H104.303L100.318 25.0559ZM102.593 6.38941C101.94 6.38941 101.348 6.19488 100.823 5.80504C100.296 5.41754 100.031 4.82107 100.031 4.01718C100.031 3.575 100.122 3.16015 100.3 2.76875C100.479 2.37813 100.717 2.04182 101.013 1.75588C101.307 1.47229 101.653 1.24573 102.041 1.07503C102.43 0.907065 102.846 0.823086 103.289 0.823086C103.943 0.823086 104.535 1.01761 105.061 1.40745C105.588 1.79924 105.854 2.39572 105.854 3.19531C105.854 3.63906 105.76 4.05545 105.583 4.44607C105.406 4.83669 105.168 5.17301 104.873 5.45894C104.576 5.74292 104.235 5.9687 103.846 6.13784C103.453 6.30854 103.038 6.38941 102.593 6.38941Z" fill="#4D4D4D"/>
<path d="M107.678 9.17334C108.033 9.06944 108.43 8.94444 108.862 8.80851C109.295 8.67257 109.779 8.54602 110.319 8.43196C110.854 8.31438 111.458 8.21906 112.121 8.14524C112.785 8.06985 113.541 8.03312 114.381 8.03312C116.851 8.03312 118.553 8.75226 119.493 10.1862C120.432 11.6202 120.595 13.5827 119.985 16.0701L117.831 25.0543H113.118L115.206 16.2592C115.333 15.71 115.433 15.1791 115.507 14.6604C115.581 14.1463 115.577 13.6932 115.49 13.301C115.407 12.9135 115.211 12.5963 114.906 12.3506C114.597 12.1088 114.131 11.9874 113.497 11.9874C112.887 11.9874 112.266 12.053 111.632 12.1796L108.563 25.054H103.848L107.678 9.17334Z" fill="#4D4D4D"/>
</g>
<defs>
<clipPath id="clip0_1_788">
<rect width="119.725" height="25" fill="white" transform="translate(0.619751 0.5)"/>
</clipPath>
</defs>
</svg>
