<svg width="64" height="26" viewBox="0 0 64 26" fill="none" xmlns="http://www.w3.org/2000/svg">
<g clip-path="url(#clip0_1_822)">
<path d="M29.9381 12.713V20.0413H27.6133V1.9436H33.7792C34.5152 1.92822 35.2469 2.05876 35.9322 2.32767C36.6175 2.59657 37.2427 2.99853 37.7718 3.51034C38.3063 3.99108 38.7316 4.58065 39.0193 5.23943C39.307 5.89822 39.4503 6.61095 39.4397 7.32973C39.455 8.05235 39.3138 8.76973 39.026 9.43271C38.7381 10.0957 38.3103 10.6886 37.7718 11.1708C36.6936 12.1989 35.3628 12.7125 33.7792 12.7115H29.9381V12.713ZM29.9381 4.17169V10.4892H33.8369C34.2644 10.5019 34.6897 10.4252 35.0858 10.2641C35.4819 10.1029 35.84 9.86092 36.1372 9.55349C36.4329 9.26604 36.6679 8.92223 36.8284 8.54238C36.9889 8.16253 37.0715 7.75436 37.0715 7.342C37.0715 6.92964 36.9889 6.52147 36.8284 6.14162C36.6679 5.76177 36.4329 5.41796 36.1372 5.13051C35.8437 4.81659 35.4869 4.56864 35.0903 4.40309C34.6937 4.23754 34.2665 4.15818 33.8369 4.17025H29.9381V4.17169Z" fill="#5F6368"/>
<path d="M44.7969 7.25504C46.5153 7.25504 47.8717 7.71423 48.8661 8.63261C49.8606 9.551 50.3573 10.8102 50.3563 12.4101V20.0417H48.1326V18.3233H48.0315C47.0688 19.7384 45.7885 20.446 44.1904 20.446C42.8263 20.446 41.6851 20.0417 40.7667 19.233C40.326 18.8619 39.9736 18.3971 39.7353 17.8725C39.497 17.3479 39.3787 16.7767 39.3891 16.2006C39.3891 14.9193 39.8734 13.9003 40.8418 13.1437C41.8103 12.387 43.1031 12.0077 44.7204 12.0058C46.1009 12.0058 47.2378 12.2585 48.1311 12.7639V12.2325C48.1338 11.8398 48.049 11.4514 47.8829 11.0955C47.7168 10.7395 47.4736 10.4251 47.1709 10.1748C46.5561 9.62013 45.7549 9.31749 44.9269 9.32718C43.6282 9.32718 42.6006 9.87494 41.8439 10.9705L39.7964 9.68096C40.9227 8.06368 42.5895 7.25504 44.7969 7.25504ZM41.7891 16.2512C41.7875 16.547 41.8567 16.839 41.9908 17.1027C42.1249 17.3665 42.3201 17.5944 42.5602 17.7674C43.0743 18.1718 43.7125 18.3861 44.3666 18.3738C45.3477 18.3722 46.2881 17.9817 46.9817 17.288C47.7518 16.5631 48.1369 15.7126 48.1369 14.7364C47.412 14.1588 46.4012 13.87 45.1045 13.87C44.1601 13.87 43.3727 14.0977 42.7421 14.553C42.1053 15.0151 41.7891 15.5768 41.7891 16.2512Z" fill="#5F6368"/>
<path d="M63.1213 7.65936L55.3584 25.5H52.9584L55.8392 19.2576L50.7347 7.65936H53.2617L56.9511 16.5544H57.0016L60.59 7.65936H63.1213Z" fill="#5F6368"/>
<path d="M20.5435 11.1336C20.5444 10.4251 20.4845 9.71786 20.3644 9.01961H10.5597V13.0238H16.1754C16.0605 13.6634 15.8172 14.273 15.4604 14.816C15.1035 15.359 14.6404 15.8241 14.0989 16.1833V18.7825H17.4504C19.4128 16.9732 20.5435 14.2974 20.5435 11.1336Z" fill="#4285F4"/>
<path d="M10.5597 21.2936C13.3653 21.2936 15.7277 20.3723 17.4504 18.7839L14.0989 16.1847C13.1661 16.8172 11.9647 17.1782 10.5597 17.1782C7.84782 17.1782 5.54608 15.3501 4.723 12.8866H1.27039V15.5653C2.13573 17.2872 3.46264 18.7347 5.10298 19.7463C6.74331 20.7578 8.63251 21.2935 10.5597 21.2936Z" fill="#34A853"/>
<path d="M4.723 12.8866C4.28787 11.5958 4.28787 10.1979 4.723 8.90698V6.22836H1.27039C0.542435 7.67691 0.163316 9.27563 0.163316 10.8968C0.163316 12.518 0.542435 14.1167 1.27039 15.5653L4.723 12.8866Z" fill="#FBBC04"/>
<path d="M10.5598 4.61511C12.0425 4.59089 13.4751 5.15109 14.5481 6.17463L17.5155 3.20721C15.6339 1.43986 13.1411 0.469556 10.5598 0.499706C8.63262 0.499793 6.74343 1.03551 5.10309 2.04704C3.46276 3.05858 2.13585 4.50612 1.27051 6.22806L4.72312 8.90668C5.5462 6.44322 7.84794 4.61511 10.5598 4.61511Z" fill="#EA4335"/>
</g>
<defs>
<clipPath id="clip0_1_822">
<rect width="62.9541" height="25" fill="white" transform="translate(0.162842 0.5)"/>
</clipPath>
</defs>
</svg>
