<svg width="42" height="26" viewBox="0 0 42 26" fill="none" xmlns="http://www.w3.org/2000/svg">
<g clip-path="url(#clip0_1_813)">
<path d="M26.4871 3.16189H15.5979V22.7254H26.4871V3.16189Z" fill="#FF5A00"/>
<path d="M16.3228 12.9436C16.3228 8.96891 18.1913 5.4412 21.0586 3.16189C18.9484 1.50274 16.2865 0.5 13.383 0.5C6.50479 0.5 0.939392 6.0654 0.939392 12.9436C0.939392 19.8218 6.50479 25.3872 13.383 25.3872C16.2865 25.3872 18.9484 24.3845 21.0586 22.7254C18.1873 20.4783 16.3228 16.9183 16.3228 12.9436Z" fill="#EB001B"/>
<path d="M41.1778 12.9436C41.1778 19.8218 35.6124 25.3872 28.7342 25.3872C25.8307 25.3872 23.1688 24.3845 21.0586 22.7254C23.9621 20.442 25.7944 16.9183 25.7944 12.9436C25.7944 8.96891 23.9259 5.4412 21.0586 3.16189C23.1647 1.50274 25.8266 0.5 28.7301 0.5C35.6124 0.5 41.1778 6.10164 41.1778 12.9436Z" fill="#F79E1B"/>
</g>
<defs>
<clipPath id="clip0_1_813">
<rect width="40.625" height="25" fill="white" transform="translate(0.939392 0.5)"/>
</clipPath>
</defs>
</svg>
