<svg width="94" height="26" viewBox="0 0 94 26" fill="none" xmlns="http://www.w3.org/2000/svg">
<g clip-path="url(#clip0_1_801)">
<path d="M35.0082 5.61328H29.8272C29.4726 5.61328 29.1711 5.87086 29.1158 6.22086L27.0203 19.5065C26.9787 19.7686 27.1817 20.0049 27.4476 20.0049H29.9211C30.2756 20.0049 30.5772 19.7474 30.6325 19.3966L31.1976 15.8133C31.2521 15.4625 31.5544 15.2049 31.9082 15.2049H33.5484C36.9612 15.2049 38.9309 13.5534 39.4453 10.2807C39.6771 8.84889 39.4552 7.72389 38.7847 6.93601C38.0484 6.07086 36.7423 5.61328 35.0082 5.61328ZM35.6059 10.4656C35.3226 12.3246 33.9021 12.3246 32.5287 12.3246H31.7468L32.2953 8.85267C32.3279 8.64283 32.5097 8.48828 32.7218 8.48828H33.0802C34.0158 8.48828 34.8984 8.48828 35.3544 9.02161C35.6264 9.3398 35.7097 9.81252 35.6059 10.4656Z" fill="#253B80"/>
<path d="M50.4954 10.4053H48.0144C47.803 10.4053 47.6204 10.5598 47.5879 10.7697L47.478 11.4636L47.3045 11.2121C46.7674 10.4326 45.5697 10.172 44.3742 10.172C41.6326 10.172 39.2909 12.2485 38.8348 15.1614C38.5977 16.6144 38.9348 18.0038 39.7591 18.9727C40.5151 19.8636 41.597 20.2348 42.8841 20.2348C45.0932 20.2348 46.3182 18.8144 46.3182 18.8144L46.2076 19.5038C46.1659 19.7674 46.3689 20.0038 46.6333 20.0038H48.8682C49.2235 20.0038 49.5235 19.7462 49.5795 19.3955L50.9204 10.9038C50.9629 10.6424 50.7606 10.4053 50.4954 10.4053ZM47.0371 15.2341C46.7977 16.6515 45.6727 17.603 44.2379 17.603C43.5174 17.603 42.9417 17.372 42.572 16.9341C42.2053 16.4992 42.0659 15.8803 42.1826 15.1909C42.4061 13.7856 43.55 12.803 44.9629 12.803C45.6674 12.803 46.2401 13.0371 46.6174 13.4788C46.9954 13.925 47.1454 14.5477 47.0371 15.2341Z" fill="#253B80"/>
<path d="M63.7091 10.4053H61.2159C60.978 10.4053 60.7546 10.5235 60.6197 10.7212L57.1811 15.7864L55.7235 10.9189C55.6318 10.6144 55.3508 10.4053 55.0326 10.4053H52.5826C52.2849 10.4053 52.078 10.6962 52.1727 10.9765L54.9189 19.0356L52.3371 22.6803C52.1341 22.9674 52.3386 23.3621 52.6894 23.3621H55.1796C55.4159 23.3621 55.6371 23.247 55.7712 23.053L64.0636 11.0833C64.2621 10.797 64.0583 10.4053 63.7091 10.4053Z" fill="#253B80"/>
<path d="M71.9635 5.61328H66.7817C66.4279 5.61328 66.1264 5.87086 66.0711 6.22086L63.9757 19.5065C63.934 19.7686 64.137 20.0049 64.4014 20.0049H67.0605C67.3075 20.0049 67.5188 19.8246 67.5575 19.5792L68.1522 15.8133C68.2067 15.4625 68.509 15.2049 68.8628 15.2049H70.5022C73.9158 15.2049 75.8847 13.5534 76.3999 10.2807C76.6325 8.84889 76.409 7.72389 75.7385 6.93601C75.0029 6.07086 73.6976 5.61328 71.9635 5.61328ZM72.5613 10.4656C72.2787 12.3246 70.8582 12.3246 69.484 12.3246H68.7029L69.2522 8.85267C69.2847 8.64283 69.465 8.48828 69.6779 8.48828H70.0363C70.9711 8.48828 71.8544 8.48828 72.3105 9.02161C72.5825 9.3398 72.665 9.81252 72.5613 10.4656Z" fill="#179BD7"/>
<path d="M87.45 10.4053H84.9704C84.7575 10.4053 84.5765 10.5598 84.5447 10.7697L84.4348 11.4636L84.2606 11.2121C83.7235 10.4326 82.5265 10.172 81.331 10.172C78.5894 10.172 76.2485 12.2485 75.7924 15.1614C75.556 16.6144 75.8916 18.0038 76.7159 18.9727C77.4735 19.8636 78.5538 20.2348 79.8409 20.2348C82.05 20.2348 83.275 18.8144 83.275 18.8144L83.1644 19.5038C83.1227 19.7674 83.3257 20.0038 83.5916 20.0038H85.8257C86.1795 20.0038 86.481 19.7462 86.5363 19.3955L87.878 10.9038C87.9189 10.6424 87.7159 10.4053 87.45 10.4053ZM83.9916 15.2341C83.7538 16.6515 82.6272 17.603 81.1924 17.603C80.4735 17.603 79.8962 17.372 79.5265 16.9341C79.1598 16.4992 79.0219 15.8803 79.1371 15.1909C79.3621 13.7856 80.5045 12.803 81.9174 12.803C82.6219 12.803 83.1947 13.0371 83.5719 13.4788C83.9515 13.925 84.1015 14.5477 83.9916 15.2341Z" fill="#179BD7"/>
<path d="M90.375 5.97727L88.2485 19.5061C88.2068 19.7682 88.4098 20.0045 88.6742 20.0045H90.8121C91.1674 20.0045 91.4689 19.747 91.5235 19.3962L93.6205 6.11136C93.6621 5.84924 93.4591 5.61212 93.1947 5.61212H90.8008C90.5894 5.61288 90.4076 5.76742 90.375 5.97727Z" fill="#179BD7"/>
<path d="M5.50447 22.586L5.90068 20.0693L5.0181 20.0489H0.803711L3.7325 1.47842C3.74159 1.42236 3.77113 1.37009 3.81432 1.33297C3.8575 1.29585 3.9128 1.27539 3.97038 1.27539H11.0764C13.4355 1.27539 15.0636 1.7663 15.9136 2.73524C16.312 3.18978 16.5658 3.66478 16.6886 4.18751C16.8173 4.736 16.8196 5.3913 16.6939 6.19054L16.6848 6.24888V6.761L17.0833 6.98675C17.4189 7.16478 17.6855 7.36857 17.8901 7.60191C18.231 7.99054 18.4514 8.48448 18.5446 9.07009C18.6408 9.67236 18.609 10.389 18.4514 11.2004C18.2696 12.1337 17.9757 12.9466 17.5787 13.6118C17.2136 14.2246 16.7484 14.733 16.1961 15.1269C15.6689 15.5011 15.0423 15.7852 14.334 15.9671C13.6476 16.1458 12.8651 16.236 12.0067 16.236H11.4537C11.0583 16.236 10.6742 16.3784 10.3726 16.6337C10.0704 16.8943 9.87038 17.2504 9.80901 17.6398L9.76735 17.8663L9.06735 22.3019L9.03553 22.4648C9.02719 22.5163 9.0128 22.5421 8.99159 22.5595C8.97265 22.5754 8.94538 22.586 8.91886 22.586H5.50447Z" fill="#253B80"/>
<path d="M17.4607 6.30859C17.4395 6.4442 17.4153 6.58284 17.388 6.72526C16.4509 11.5366 13.2448 13.1987 9.1501 13.1987H7.06525C6.56449 13.1987 6.14253 13.5624 6.06449 14.0563L4.99707 20.826L4.6948 22.745C4.64404 23.0692 4.89404 23.3616 5.22131 23.3616H8.91904C9.35692 23.3616 9.72889 23.0434 9.79783 22.6116L9.83419 22.4237L10.5304 18.0056L10.5751 17.7631C10.6433 17.3298 11.016 17.0116 11.4539 17.0116H12.0069C15.5895 17.0116 18.394 15.5571 19.2137 11.348C19.5562 9.58965 19.3789 8.12147 18.4728 7.0889C18.1986 6.77753 17.8584 6.5192 17.4607 6.30859Z" fill="#179BD7"/>
<path d="M16.4803 5.91743C16.3371 5.87576 16.1894 5.83788 16.0379 5.80379C15.8856 5.77046 15.7295 5.74091 15.5689 5.71515C15.0068 5.62424 14.3909 5.58106 13.7311 5.58106H8.16136C8.02424 5.58106 7.89394 5.61212 7.77727 5.66818C7.52045 5.79167 7.32954 6.03485 7.28333 6.33258L6.09848 13.8371L6.06439 14.0561C6.14242 13.5621 6.56439 13.1985 7.06515 13.1985H9.15C13.2447 13.1985 16.4508 11.5356 17.3879 6.725C17.4159 6.58258 17.4394 6.44394 17.4606 6.30834C17.2235 6.18258 16.9667 6.075 16.6901 5.98334C16.622 5.96061 16.5515 5.93864 16.4803 5.91743Z" fill="#222D65"/>
<path d="M7.28332 6.33258C7.32954 6.03485 7.52044 5.79167 7.77726 5.66894C7.89469 5.61288 8.02423 5.58182 8.16135 5.58182H13.7311C14.3909 5.58182 15.0068 5.625 15.5689 5.71591C15.7295 5.74167 15.8856 5.77121 16.0379 5.80455C16.1894 5.83864 16.3371 5.87652 16.4803 5.91818C16.5515 5.93939 16.622 5.96136 16.6909 5.98333C16.9674 6.075 17.2242 6.18333 17.4614 6.30833C17.7401 4.5303 17.4591 3.3197 16.4977 2.22349C15.4379 1.01667 13.525 0.5 11.0773 0.5H3.9712C3.4712 0.5 3.04469 0.863636 2.96742 1.35833L0.00756729 20.1197C-0.050766 20.4909 0.235598 20.8258 0.60984 20.8258H4.99696L6.09848 13.8371L7.28332 6.33258Z" fill="#253B80"/>
</g>
<defs>
<clipPath id="clip0_1_801">
<rect width="93.9394" height="25" fill="white" transform="translate(0 0.5)"/>
</clipPath>
</defs>
</svg>
