<svg width="107" height="30" viewBox="0 0 107 30" fill="none" xmlns="http://www.w3.org/2000/svg">
<g clip-path="url(#clip0_1_772)">
<path d="M23.1876 5.682C23.1672 5.53298 23.037 5.45031 22.9289 5.44131C22.8217 5.43231 20.721 5.40039 20.721 5.40039C20.721 5.40039 18.9642 3.6943 18.7906 3.52075C18.6171 3.34719 18.2782 3.39959 18.1464 3.43888C18.1447 3.4397 17.8165 3.54121 17.2639 3.71231C17.1714 3.41269 17.0354 3.04429 16.8414 2.67425C16.216 1.48065 15.2999 0.849467 14.193 0.847834C14.1914 0.847834 14.1906 0.847834 14.189 0.847834C14.112 0.847834 14.0359 0.855202 13.9589 0.861748C13.9262 0.822452 13.8934 0.783979 13.8591 0.746316C13.3769 0.230565 12.7588 -0.020763 12.0179 0.00134071C10.5885 0.0422736 9.1649 1.0746 8.01059 2.90839C7.19847 4.19859 6.58038 5.81956 6.4052 7.07454C4.76378 7.58292 3.61602 7.9382 3.59064 7.94641C2.76216 8.20672 2.73596 8.2321 2.6279 9.01313C2.54767 9.60334 0.379868 26.3662 0.379868 26.3662L18.5467 29.5082L26.4205 27.5508C26.4205 27.5508 23.2081 5.83102 23.1876 5.682ZM16.3543 3.99393C15.936 4.12328 15.4603 4.27064 14.9446 4.43028C14.9339 3.70658 14.848 2.69964 14.5107 1.8294C15.5954 2.03489 16.1292 3.26205 16.3543 3.99393ZM13.9941 4.72499C13.042 5.01969 12.0031 5.34143 10.961 5.664C11.2541 4.54161 11.81 3.42415 12.4927 2.69145C12.7465 2.41884 13.1018 2.11511 13.5226 1.94156C13.918 2.76676 14.0039 3.93499 13.9941 4.72499ZM12.0465 0.952618C12.3822 0.945251 12.6646 1.01893 12.9061 1.17775C12.5197 1.37832 12.1464 1.66649 11.796 2.04225C10.8881 3.01646 10.1923 4.52851 9.91475 5.98736C9.04942 6.25505 8.20293 6.51787 7.42357 6.75856C7.91562 4.4622 9.84024 1.01647 12.0465 0.952618Z" fill="#95BF47"/>
<path d="M22.9299 5.4419C22.8226 5.4329 20.722 5.40098 20.722 5.40098C20.722 5.40098 18.9651 3.69489 18.7916 3.52134C18.7269 3.45666 18.6393 3.42309 18.5476 3.40918L18.5484 29.5072L26.4215 27.5506C26.4215 27.5506 23.2091 5.83161 23.1886 5.68259C23.1681 5.53357 23.0371 5.4509 22.9299 5.4419Z" fill="#5E8E3E"/>
<path d="M14.1832 9.49043L13.2688 12.9116C13.2688 12.9116 12.2488 12.4474 11.0396 12.5235C9.26636 12.6357 9.24753 13.754 9.26557 14.0348C9.36216 15.5648 13.3875 15.8989 13.6135 19.4829C13.7911 22.3024 12.1177 24.2311 9.70682 24.3834C6.81285 24.566 5.21975 22.8591 5.21975 22.8591L5.83293 20.2508C5.83293 20.2508 7.43666 21.4608 8.72031 21.3798C9.55864 21.3266 9.85825 20.6446 9.82795 20.1624C9.7019 18.1665 6.42398 18.2844 6.21689 15.0049C6.04249 12.2452 7.85503 9.44867 11.8541 9.19652C13.3949 9.09747 14.1832 9.49043 14.1832 9.49043Z" fill="white"/>
<path d="M36.7892 16.6546C35.8838 16.1634 35.4185 15.7493 35.4185 15.1801C35.4185 14.4558 36.0649 13.9905 37.0742 13.9905C38.2491 13.9905 39.2982 14.4817 39.2982 14.4817L40.1256 11.9467C40.1256 11.9467 39.3648 11.3516 37.1253 11.3516C34.0089 11.3516 31.8491 13.1363 31.8491 15.6453C31.8491 17.0679 32.8576 18.1543 34.203 18.9298C35.2894 19.5501 35.6776 19.9902 35.6776 20.6366C35.6776 21.3089 35.1344 21.8521 34.1259 21.8521C32.6229 21.8521 31.2035 21.0758 31.2035 21.0758L30.3242 23.6108C30.3242 23.6108 31.6355 24.4902 33.8417 24.4902C37.049 24.4902 39.351 22.9125 39.351 20.0673C39.3502 18.5425 38.1866 17.456 36.7892 16.6546Z" fill="black"/>
<path d="M49.5666 11.3257C47.9888 11.3257 46.7473 12.076 45.7908 13.2136L45.7388 13.1875L47.1095 6.02344H43.54L40.0744 24.2573H43.6439L44.8335 18.0245C45.2987 15.6706 46.5143 14.2228 47.6527 14.2228C48.4541 14.2228 48.7651 14.766 48.7651 15.5423C48.7651 16.0336 48.7131 16.6287 48.61 17.12L47.2654 24.2581H50.835L52.2312 16.8869C52.3866 16.1107 52.4904 15.1802 52.4904 14.559C52.4889 12.5412 51.4286 11.3257 49.5666 11.3257Z" fill="black"/>
<path d="M60.5584 11.326C56.2645 11.326 53.4204 15.2057 53.4204 19.5246C53.4204 22.2919 55.1269 24.5159 58.3345 24.5159C62.5502 24.5159 65.3953 20.7402 65.3953 16.3173C65.3953 13.7571 63.8948 11.326 60.5584 11.326ZM58.7997 21.7754C57.584 21.7754 57.0666 20.741 57.0666 19.4475C57.0666 17.4045 58.1274 14.0681 60.0671 14.0681C61.3345 14.0681 61.7476 15.1545 61.7476 16.215C61.7476 18.413 60.6882 21.7754 58.7997 21.7754Z" fill="black"/>
<path d="M74.5251 11.326C72.1158 11.326 70.7486 13.4469 70.7486 13.4469H70.6974L70.9045 11.5331H67.7491C67.5941 12.8266 67.3089 14.7916 67.0251 16.2661L64.542 29.3269H68.1115L69.0937 24.0506H69.1719C69.1719 24.0506 69.9041 24.5159 71.2669 24.5159C75.4566 24.5159 78.1979 20.2229 78.1979 15.8772C78.1979 13.473 77.1371 11.326 74.5251 11.326ZM71.111 21.8266C70.1845 21.8266 69.6361 21.3093 69.6361 21.3093L70.2312 17.9729C70.6453 15.7489 71.8089 14.2743 73.0507 14.2743C74.1371 14.2743 74.473 15.2828 74.473 16.2402C74.473 18.5421 73.1023 21.8266 71.111 21.8266Z" fill="black"/>
<path d="M83.293 6.20488C82.1554 6.20488 81.25 7.11024 81.25 8.2738C81.25 9.33428 81.9223 10.0586 82.931 10.0586H82.9827C84.0951 10.0586 85.0517 9.30826 85.0777 7.98964C85.0777 6.95513 84.3794 6.20488 83.293 6.20488Z" fill="black"/>
<path d="M78.3017 24.2579H81.8703L84.3022 11.6113H80.7067L78.3017 24.2579Z" fill="black"/>
<path d="M93.3803 11.5851H90.8972L91.0261 10.9899C91.2331 9.77434 91.9576 8.6879 93.1472 8.6879C93.7822 8.6879 94.2848 8.86898 94.2848 8.86898L94.9831 6.07579C94.9831 6.07579 94.3625 5.76561 93.043 5.76561C91.7756 5.76561 90.5092 6.12772 89.5517 6.95513C88.3359 7.98964 87.7669 9.48934 87.4826 10.9899L87.3799 11.5851H85.724L85.2066 14.2752H86.8625L84.9744 24.2585H88.544L90.432 14.2752H92.889L93.3803 11.5851Z" fill="black"/>
<path d="M101.967 11.6111C101.967 11.6111 99.7355 17.2324 98.7337 20.3009H98.6815C98.6137 19.3127 97.8022 11.6111 97.8022 11.6111H94.0517L96.1994 23.2232C96.2515 23.4814 96.2255 23.6373 96.1217 23.8184C95.7071 24.6198 95.0092 25.3961 94.1815 25.9653C93.5092 26.4565 92.7592 26.7667 92.1646 26.9737L93.1473 30C93.8717 29.8449 95.3712 29.2498 96.6386 28.0602C98.2684 26.5345 99.7679 24.1805 101.32 20.9732L105.691 11.6102H101.967V11.6111Z" fill="black"/>
</g>
<defs>
<clipPath id="clip0_1_772">
<rect width="105.738" height="30" fill="white" transform="translate(0.379868)"/>
</clipPath>
</defs>
</svg>
