<svg width="63" height="20" viewBox="0 0 63 20" fill="none" xmlns="http://www.w3.org/2000/svg">
<g clip-path="url(#clip0_1_819)">
<path d="M40.6764 0.03125C36.307 0.03125 32.4023 2.29597 32.4023 6.48021C32.4023 11.2787 39.3274 11.6102 39.3274 14.0208C39.3274 15.0359 38.1642 15.9445 36.1775 15.9445C33.3579 15.9445 31.2506 14.6749 31.2506 14.6749L30.3489 18.8972C30.3489 18.8972 32.7765 19.9696 35.9995 19.9696C40.7766 19.9696 44.5356 17.5937 44.5356 13.3379C44.5356 8.26742 37.5817 7.94584 37.5817 5.70835C37.5817 4.91323 38.5366 4.04201 40.5177 4.04201C42.7529 4.04201 44.5765 4.96535 44.5765 4.96535L45.459 0.887264C45.459 0.887264 43.4747 0.03125 40.6764 0.03125ZM0.700953 0.339031L0.595154 0.954591C0.595154 0.954591 2.43335 1.29101 4.08894 1.96209C6.22066 2.73162 6.37251 3.1796 6.73153 4.57101L10.6437 19.6522H15.888L23.9672 0.339031H18.735L13.5436 13.4702L11.4252 2.3396C11.2309 1.06572 10.2468 0.339031 9.04229 0.339031H0.700953ZM26.0712 0.339031L21.9667 19.6522H26.9561L31.0462 0.339031H26.0712ZM53.8989 0.339031C52.6958 0.339031 52.0583 0.983163 51.5905 2.10877L44.2808 19.6522H49.513L50.5253 16.7283H56.8998L57.5153 19.6522H62.132L58.1044 0.339031H53.8989ZM54.5794 5.55687L56.1303 12.8041H51.9753L54.5794 5.55687Z" fill="#1434CB"/>
</g>
<defs>
<clipPath id="clip0_1_819">
<rect width="61.5984" height="20" fill="white" transform="translate(0.564392)"/>
</clipPath>
</defs>
</svg>
