<svg width="101" height="26" viewBox="0 0 101 26" fill="none" xmlns="http://www.w3.org/2000/svg">
<g clip-path="url(#clip0_1_769)">
<path d="M33.0779 10.2762C33.0779 8.49311 31.344 6.59936 28.3435 6.59936C24.9741 6.59936 21.2726 9.07108 20.707 14.0022C20.129 18.9825 23.2279 21.196 26.3513 21.196C29.4748 21.196 31.1103 19.9786 32.7827 18.3554C31.344 16.5477 29.4871 17.3839 29.1305 17.5684C28.737 17.7651 28.2328 18.0357 27.1998 18.0357C25.9947 18.0357 24.765 17.4946 24.765 15.2442C32.4876 14.4818 33.0779 12.0593 33.0779 10.2762ZM29.2535 10.5713C29.2043 11.1247 28.9829 12.0716 25.0724 12.6003C25.8963 9.67364 27.4704 9.45229 28.1959 9.45229C28.8722 9.45229 29.3026 9.98106 29.2535 10.5713ZM16.1693 11.0509C16.1693 11.0509 14.5092 16.2649 14.374 16.6953C14.3248 16.2526 13.1074 6.89449 13.1074 6.89449C10.279 6.89449 8.76649 8.91121 7.96717 11.0386C7.96717 11.0386 5.95045 16.2649 5.77829 16.7076C5.76599 16.3018 5.47086 11.1001 5.47086 11.1001C5.2987 8.49311 2.91307 6.90679 0.982422 6.90679L3.31887 21.0853C6.28247 21.073 7.88109 19.0686 8.7173 16.9412C8.7173 16.9412 10.5004 12.3298 10.5742 12.1208C10.5865 12.3175 11.8531 21.0853 11.8531 21.0853C14.829 21.0853 16.4276 19.2039 17.2884 17.1503L21.4571 6.90679C18.5181 6.90679 16.9686 8.91121 16.1693 11.0509ZM43.9977 6.57477C42.1654 6.57477 40.7635 7.57083 39.583 9.03419V9.02189L40.6406 0.5C38.2057 0.5 36.2259 2.6151 35.8447 5.76316L34.0001 20.9747C35.402 20.9747 36.8899 20.5689 37.6893 19.5359C38.4025 20.4582 39.4723 21.196 41.0587 21.196C45.1659 21.196 47.9819 16.4247 47.9819 11.9486C47.9573 7.86596 45.9775 6.57477 43.9977 6.57477ZM43.6165 13.8915C43.1861 16.3878 41.7965 18.0849 40.4561 18.0849C39.1034 18.0849 38.5255 17.4823 38.5255 17.4823C38.7837 15.2934 38.9436 13.953 39.4355 12.7971C39.9273 11.6412 41.0956 9.79661 42.313 9.79661C43.5058 9.79661 44.0469 11.3829 43.6165 13.8915ZM58.2377 6.90679H55.3725L55.3848 6.75922C55.5815 4.89006 56.0242 3.9063 57.4876 3.74643C58.4837 3.64806 58.9263 3.13158 59.037 2.56591C59.1231 2.12322 59.3936 0.58608 59.3936 0.58608C53.6386 0.549188 51.8309 3.0332 51.3636 6.82071L51.3513 6.90679H51.2899C50.3553 6.90679 49.3223 7.96434 49.1502 9.30472L49.0887 9.79661H51.007L49.3961 23.1021L48.9042 25.4877C48.9657 25.4877 49.0395 25.5 49.101 25.5C51.794 25.4016 53.5156 23.2742 53.8968 20.1877L55.1511 9.79661H56.0488C56.9342 9.79661 57.9672 8.91121 58.1516 7.43556L58.2377 6.90679ZM73.1418 6.66085C69.8339 6.66085 66.7104 9.09567 65.7512 12.9201C64.7921 16.7445 66.2431 21.2698 71.1128 21.2698C75.9701 21.2698 78.7739 16.56 78.7739 12.6372C78.7739 8.73905 76.13 6.66085 73.1418 6.66085ZM74.4822 13.7686C74.31 15.5025 73.5476 18.134 71.4571 18.134C69.3543 18.134 69.6494 15.0598 69.8585 13.5964C70.0798 12.0347 70.9529 9.8089 72.8344 9.8089C74.5191 9.8089 74.6789 11.8133 74.4822 13.7686ZM95.1167 11.0509C95.1167 11.0509 93.4566 16.2649 93.3213 16.6953C93.2721 16.2526 92.0547 6.89449 92.0547 6.89449C89.2264 6.89449 87.7139 8.91121 86.9145 11.0386C86.9145 11.0386 84.8978 16.2649 84.7257 16.7076C84.7134 16.3018 84.4182 11.1001 84.4182 11.1001C84.2461 8.49311 81.8604 6.90679 79.9298 6.90679L82.2539 21.0853C85.2176 21.073 86.8162 19.0686 87.6524 16.9412C87.6524 16.9412 89.4354 12.3298 89.4969 12.1208C89.5215 12.3175 90.7758 21.0853 90.7758 21.0853C93.7517 21.0853 95.3504 19.2039 96.2112 17.1503L100.38 6.90679C97.4532 6.90679 95.9037 8.91121 95.1167 11.0509ZM60.9431 0.58608L58.5328 20.0278L58.041 22.4257C58.1024 22.4257 58.1762 22.438 58.2377 22.438C60.8324 22.4011 62.677 20.1262 63.0213 17.2609L64.4109 6.10748C64.829 2.70118 62.7999 0.58608 60.9431 0.58608Z" fill="#3A60F8"/>
</g>
<defs>
<clipPath id="clip0_1_769">
<rect width="99.3974" height="25" fill="white" transform="translate(0.982422 0.5)"/>
</clipPath>
</defs>
</svg>
