<svg width="66" height="30" viewBox="0 0 66 30" fill="none" xmlns="http://www.w3.org/2000/svg">
<g clip-path="url(#clip0_1_785)">
<path d="M39.4232 13.0472H37.7905C37.7569 12.9135 37.7319 12.7585 37.7153 12.5826C37.682 12.2402 37.682 11.8953 37.7153 11.5529C37.7319 11.3774 37.7569 11.2225 37.7905 11.0881H41.8595V23.9728C41.6558 24.0082 41.4504 24.0332 41.2441 24.0477C41.0393 24.0634 40.8339 24.0717 40.6284 24.0726C40.4316 24.0714 40.2349 24.0631 40.0386 24.0477C39.8325 24.0331 39.6272 24.008 39.4236 23.9724V13.0466V13.0469L39.4232 13.0472ZM53.5883 16.2874C53.5883 15.8184 53.5254 15.3706 53.4002 14.9433C53.2744 14.5166 53.0897 14.1442 52.8476 13.8258C52.6043 13.508 52.2948 13.2524 51.918 13.06C51.5414 12.8674 51.0933 12.771 50.5743 12.771C49.553 12.771 48.7701 13.0812 48.226 13.7005C47.6818 14.3199 47.3513 15.1821 47.2339 16.2874H53.5884H53.5883ZM47.2089 18.1458C47.2424 19.5523 47.6066 20.5823 48.3015 21.2349C48.9961 21.8879 50.0218 22.2148 51.3781 22.2148C52.5666 22.2148 53.6969 22.0052 54.7685 21.5867C54.9021 21.8378 55.0109 22.1434 55.0947 22.5034C55.177 22.8539 55.2274 23.2112 55.2454 23.5707C54.6932 23.8058 54.0857 23.9808 53.4248 24.0983C52.763 24.2151 52.0305 24.2741 51.2273 24.2741C50.0548 24.2741 49.05 24.1103 48.2133 23.7841C47.3759 23.4573 46.6853 22.9968 46.1411 22.4027C45.597 21.8085 45.1992 21.1051 44.948 20.2929C44.697 19.481 44.5711 18.5893 44.5711 17.6182C44.5711 16.6638 44.6924 15.772 44.9353 14.943C45.1777 14.1147 45.551 13.3946 46.0528 12.7834C46.5553 12.172 47.1873 11.6867 47.9492 11.3267C48.7107 10.9667 49.6106 10.7864 50.6492 10.7864C51.5365 10.7864 52.3151 10.9373 52.985 11.2386C53.6544 11.5399 54.2155 11.9544 54.6678 12.4819C55.1197 13.0094 55.463 13.6373 55.6975 14.3653C55.9317 15.094 56.0493 15.885 56.0493 16.7391C56.0493 16.9736 56.0404 17.2204 56.0238 17.4798C56.0101 17.7019 55.9934 17.9237 55.9738 18.1453H47.2084L47.2086 18.1457L47.2089 18.1458ZM58.7884 11.0881C58.9632 11.0564 59.1391 11.0313 59.3158 11.0129C59.4828 10.9965 59.659 10.988 59.8432 10.988C60.0274 10.988 60.2113 10.9965 60.3958 11.0129C60.5799 11.0299 60.7474 11.0551 60.8982 11.0881C60.948 11.3394 60.9983 11.6704 61.0483 12.0802C61.0985 12.4905 61.1241 12.8377 61.1241 13.1225C61.4755 12.5534 61.9402 12.0591 62.5177 11.6404C63.0954 11.2221 63.8362 11.0125 64.7403 11.0125C64.8742 11.0125 65.0123 11.017 65.1547 11.0254C65.2765 11.0319 65.3983 11.0442 65.5189 11.0627C65.5521 11.2136 65.5778 11.3729 65.5943 11.5401C65.6108 11.7074 65.6192 11.8833 65.6192 12.0674C65.6192 12.2685 65.6068 12.4779 65.5817 12.6951C65.5576 12.9051 65.5283 13.1144 65.494 13.3229C65.3583 13.2895 65.2191 13.2727 65.0793 13.2727H64.74C64.2881 13.2727 63.8568 13.3356 63.4466 13.461C63.0361 13.5868 62.6679 13.8087 62.3415 14.1265C62.0153 14.4448 61.7555 14.8803 61.5633 15.4329C61.3703 15.9854 61.2743 16.6971 61.2743 17.5676V23.9724C61.0706 24.0078 60.8652 24.033 60.6589 24.0476C60.4331 24.0644 60.2279 24.0725 60.0438 24.0725C59.8384 24.0717 59.6331 24.0634 59.4283 24.0476C59.2138 24.032 59.0001 24.0069 58.7877 23.9725V11.0882L58.7884 11.0881ZM41.1612 4.20829C41.1612 4.5089 41.107 4.80705 41.001 5.08838C40.7196 5.19434 40.4214 5.24866 40.1207 5.24872H40.117C39.8163 5.24876 39.518 5.19449 39.2366 5.08851C39.1305 4.80713 39.0761 4.50888 39.0762 4.20816V4.20423C39.0762 3.8944 39.133 3.59768 39.236 3.32388C39.5174 3.21775 39.8158 3.16347 40.1166 3.16366H40.12C40.43 3.16366 40.7265 3.22052 41.0003 3.32388C41.1064 3.60526 41.1607 3.90351 41.1606 4.20423V4.20816H41.161L41.1612 4.20829ZM44.2301 3.51134H41.7966L43.5172 1.7906C43.2466 1.41062 42.9145 1.07854 42.5344 0.80807L40.8135 2.52881V0.0951443C40.5847 0.0566534 40.3531 0.0372416 40.121 0.0371094H40.1166C39.8805 0.0371094 39.6493 0.057284 39.424 0.0951443V2.52881L37.7027 0.807939C37.5131 0.942857 37.3352 1.09343 37.1708 1.25807L37.17 1.25886C37.0056 1.42338 36.8552 1.60128 36.7203 1.79073L38.4416 3.51134H36.0075C36.0075 3.51134 35.9496 3.96855 35.9496 4.20488V4.20776C35.9496 4.4441 35.9697 4.67571 36.0076 4.90117H38.4417L36.7202 6.62165C36.9909 7.00158 37.3231 7.33373 37.7031 7.60445L39.4241 5.88383V8.31763C39.6492 8.35536 39.88 8.37528 40.1158 8.37554H40.1217C40.3535 8.37532 40.5848 8.35596 40.8134 8.31763V5.88383L42.5345 7.60484C42.7241 7.4698 42.9022 7.31924 43.0668 7.15471H43.0672C43.2315 6.99001 43.3819 6.81198 43.5168 6.62244L41.7962 4.9013H44.2303C44.268 4.67597 44.2879 4.44514 44.2879 4.20934V4.20331C44.2879 3.97143 44.2685 3.74021 44.2303 3.51161V3.51134H44.2301ZM0.117554 23.6213L6.89886 13.0723H0.921134C0.871091 12.771 0.846069 12.4364 0.846069 12.0679C0.846069 11.7164 0.871484 11.3896 0.921659 11.088H10.5911L10.7169 11.4151L3.88537 21.9887H10.2896C10.3398 22.3237 10.3651 22.6667 10.3651 23.0182C10.3651 23.3535 10.34 23.6715 10.2898 23.9728H0.243318L0.117554 23.6209V23.6213ZM19.6825 17.9196C19.4314 17.8865 19.1132 17.8533 18.7282 17.8194C18.343 17.7862 18.0166 17.7692 17.749 17.7692C16.7107 17.7692 15.9196 17.9618 15.3758 18.3469C14.8312 18.7323 14.5596 19.3181 14.5596 20.105C14.5596 20.6073 14.6513 21.0008 14.8356 21.2854C15.0196 21.5704 15.25 21.7876 15.5263 21.9384C15.8027 22.0891 16.1079 22.1813 16.4427 22.2148C16.7774 22.2482 17.0957 22.2649 17.397 22.2649C17.7822 22.2649 18.1798 22.2439 18.5901 22.202C19.0001 22.1605 19.3643 22.0975 19.6827 22.0137V17.9196H19.6825ZM19.6825 15.4837C19.6825 14.4954 19.4314 13.8089 18.9293 13.4238C18.4267 13.0386 17.6985 12.8461 16.7441 12.8461C16.1576 12.8461 15.6096 12.8924 15.0991 12.9844C14.5939 13.0751 14.0947 13.1966 13.6043 13.3482C13.286 12.7956 13.1275 12.1347 13.1275 11.364C13.696 11.1801 14.3238 11.0378 15.0107 10.9373C15.6971 10.8367 16.3584 10.7864 16.995 10.7864C18.6692 10.7864 19.9417 11.1676 20.8124 11.9294C21.6828 12.6919 22.1186 13.9098 22.1186 15.5839V23.6462C21.5322 23.7801 20.8208 23.9182 19.9837 24.0606C19.1373 24.2035 18.2803 24.2749 17.4219 24.2741C16.6016 24.2741 15.8603 24.199 15.1993 24.0482C14.5377 23.8972 13.9768 23.655 13.5164 23.3196C13.0555 22.985 12.7003 22.5579 12.4487 22.039C12.1977 21.5199 12.0721 20.8921 12.0721 20.1552C12.0721 19.4355 12.2186 18.8032 12.5116 18.2588C12.7996 17.7208 13.2079 17.2567 13.7048 16.9026C14.2071 16.5431 14.7847 16.2748 15.4377 16.0993C16.0909 15.9234 16.7771 15.8353 17.4971 15.8353C18.0329 15.8353 18.4724 15.8482 18.8158 15.8733C19.1588 15.8982 19.4478 15.9275 19.6823 15.9611V15.4838L19.6825 15.4837ZM27.3175 21.8626C27.6345 21.9797 27.9628 22.0639 28.2971 22.1138C28.632 22.1643 29.0669 22.1893 29.6032 22.1893C30.2059 22.1893 30.7582 22.0933 31.2604 21.9007C31.763 21.7085 32.194 21.411 32.554 21.0089C32.914 20.6073 33.1985 20.1011 33.4079 19.4893C33.6171 18.8785 33.722 18.1546 33.722 17.317C33.722 15.9776 33.4747 14.9144 32.981 14.1273C32.4868 13.3405 31.6789 12.9469 30.5575 12.9469C30.1389 12.9469 29.7367 13.0221 29.3522 13.173C28.9665 13.3237 28.6236 13.5498 28.3221 13.8511C28.0208 14.1524 27.7781 14.5337 27.594 14.994C27.4093 15.4549 27.3176 16.0027 27.3176 16.6392V21.863V21.8627L27.3175 21.8626ZM24.831 11.0879C25.0013 11.0543 25.1729 11.0293 25.3458 11.0127C25.5254 10.996 25.7057 10.9877 25.886 10.9878C26.0529 10.9878 26.2286 10.9964 26.4131 11.0127C26.5971 11.0297 26.7729 11.055 26.9406 11.088C26.9571 11.122 26.9783 11.2262 27.0034 11.4021C27.0283 11.5781 27.0535 11.7663 27.0788 11.967C27.1039 12.1681 27.129 12.3611 27.1541 12.5448C27.1793 12.7292 27.1918 12.8465 27.1918 12.8966C27.3589 12.629 27.56 12.3692 27.7945 12.1181C28.0289 11.8668 28.3097 11.6408 28.6362 11.4401C28.9626 11.239 29.3307 11.0801 29.7412 10.9627C30.1512 10.8456 30.6075 10.7865 31.1099 10.7865C31.8632 10.7865 32.5624 10.9123 33.2073 11.1636C33.8516 11.4151 34.4038 11.8038 34.8645 12.3313C35.3247 12.8589 35.6846 13.5287 35.9444 14.3406C36.2038 15.1533 36.3334 16.1117 36.3334 17.2166C36.3334 19.4267 35.7348 21.1559 34.5374 22.4031C33.34 23.6506 31.6452 24.2741 29.4518 24.2741C29.0833 24.2741 28.7068 24.2489 28.3216 24.1988C27.9362 24.1483 27.6016 24.0813 27.3168 23.9979V29.9002C27.1047 29.9347 26.8911 29.9599 26.6767 29.9755C26.4505 29.9919 26.2452 30.0004 26.061 30.0004C25.8557 29.9995 25.6505 29.9912 25.4458 29.9755C25.2396 29.9609 25.0343 29.9358 24.8306 29.9002V11.088L24.831 11.0879Z" fill="#FF4A00"/>
</g>
<defs>
<clipPath id="clip0_1_785">
<rect width="65.5022" height="30" fill="white" transform="translate(0.117554)"/>
</clipPath>
</defs>
</svg>
